<svg width="213" height="210" viewBox="0 0 213 210" fill="none" xmlns="http://www.w3.org/2000/svg">
<path d="M83.0208 209.195C65.7256 208.093 51.578 204.809 39.4578 199.081C33.3516 196.195 33.8124 197.723 35.3644 185.486L36.4459 176.999L35.3256 164.631C34.5932 156.546 33.9967 152.094 33.6038 151.779C33.2692 151.512 31.7152 149 30.1457 146.201C25.9951 138.79 21.0883 131.394 15.0263 123.406C7.86664 113.973 5.8534 110.922 3.60056 106.116C-0.908031 96.4931 -0.789692 87.5206 3.97304 77.8739C5.70304 74.3673 7.01304 72.5194 9.6825 69.8277C21.4104 57.9839 39.2492 56.752 58.5514 66.4472C72.3158 73.3585 81.9577 81.298 92.3852 94.3058C93.1127 95.2127 92.7053 93.4958 90.7702 87.5157C87.0647 76.0551 86.4051 72.5679 86.4245 64.4781C86.4391 58.692 86.604 57.2176 87.5449 54.5355C90.0378 47.3866 94.6744 41.7266 100.092 39.2046L103.104 37.8029L103.109 28.2241L103.113 18.6453H95.1109H87.1084V15.0078V11.3702H95.1109H103.113V6.03523V0.700195H106.751H110.389V6.03523V11.3702H118.149H125.909V15.0078V18.6453H118.149H110.389V28.2872V37.929L113.177 39.2919C118.42 41.8478 123.042 47.5757 125.472 54.5355C126.413 57.2176 126.578 58.692 126.592 64.4781C126.612 72.5679 125.952 76.0551 122.247 87.5157C120.312 93.4958 119.904 95.2127 120.632 94.3058C131.059 81.298 140.701 73.3585 154.466 66.4472C173.769 56.752 191.607 57.9839 203.335 69.8277C206.007 72.5194 207.316 74.3673 209.043 77.8739C213.806 87.5206 213.927 96.4931 209.416 106.116C207.166 110.922 205.153 113.973 197.99 123.406C191.932 131.394 187.024 138.79 182.872 146.201C181.301 149 179.749 151.512 179.414 151.779C179.021 152.094 178.425 156.546 177.692 164.631L176.572 176.999L177.654 185.486C179.201 197.694 179.594 196.249 174.045 198.858C167.231 202.059 163.821 203.291 156.638 205.144C148.704 207.191 139.217 208.585 128.819 209.233C119.613 209.806 92.2591 209.784 83.0198 209.195H83.0208Z" fill="black"/>
<path d="M106.994 123.551C106.994 123.1 110.161 113.308 114.032 101.799C121.661 79.1105 122.83 74.7697 123.3 67.388C123.897 57.9838 121.637 50.67 116.588 45.6502C113.033 42.1097 110.991 41.2124 106.509 41.2124C102.028 41.2124 99.986 42.1097 96.431 45.6502C91.3821 50.67 89.122 57.9838 89.7185 67.388C90.189 74.7697 91.3578 79.1105 98.9869 101.799C102.857 113.308 106.024 123.1 106.024 123.551C106.024 124.002 106.243 124.376 106.509 124.376C106.776 124.376 106.994 124.002 106.994 123.551Z" fill="white"/>
<path d="M47.4261 152.254C57.9313 149.261 70.6529 146.851 83.714 145.386C94.2289 144.208 118.789 144.208 129.304 145.386C142.365 146.851 155.087 149.261 165.592 152.254C168.876 153.195 171.97 153.961 172.465 153.961C174.191 153.961 176.325 151.449 179.808 145.328C184.76 136.617 189.406 129.585 195.565 121.466C202.53 112.29 204.766 108.948 206.517 105.078C213.903 88.7912 206.192 70.3708 189.687 64.8563C186.215 63.6971 185.099 63.5613 179.017 63.571C173.265 63.5759 171.519 63.7699 167.586 64.8272C154.942 68.227 142.526 75.7834 131.501 86.793C125.085 93.195 120.448 99.3691 116.738 106.445C114.061 111.552 111.83 119.366 109.817 130.657L108.692 136.986H106.509H104.327L103.201 130.657C101.189 119.366 98.9577 111.552 96.2805 106.445C92.5702 99.3691 87.9336 93.195 81.517 86.793C70.4929 75.7834 58.0768 68.227 45.4327 64.8272C41.4994 63.7699 39.7533 63.5759 34.0012 63.571C27.9212 63.5613 26.8057 63.6971 23.3311 64.8563C6.82405 70.3708 -0.884594 88.7912 6.50055 105.078C8.25384 108.948 10.4882 112.29 17.451 121.466C23.6139 129.585 28.2568 136.617 33.2107 145.328C36.693 151.449 38.827 153.961 40.5536 153.961C41.0483 153.961 44.1426 153.195 47.4261 152.254Z" fill="white"/>
<path d="M48.7554 178.73C60.0462 174.574 73.2723 171.382 86.3819 169.646C91.0864 169.02 96.1935 168.812 106.51 168.812C116.826 168.812 121.933 169.02 126.637 169.646C139.815 171.392 152.968 174.574 164.424 178.788C170.297 180.951 171.616 180.932 172.892 178.657C173.852 176.945 173.261 174.986 171.451 173.885C169.211 172.527 155.733 168.172 148.026 166.324C132.739 162.652 122.738 161.488 106.51 161.488C87.2549 161.488 71.8561 163.782 54.2359 169.273C42.169 173.031 39.5791 174.423 39.5791 177.13C39.5791 178.434 41.5822 180.636 42.7704 180.636C43.2166 180.636 45.9084 179.778 48.7554 178.73Z" fill="white"/>
<path d="M45.4526 198.15C58.8678 192.078 77.6665 187.383 94.0451 186.005C118.412 183.964 144.34 188.178 166.863 197.854L170.937 199.605L173.401 198.359C178.736 195.657 175.695 193.12 160.587 187.664C144.34 181.801 123.844 178.221 106.51 178.221C89.1756 178.221 68.6794 181.801 52.4318 187.664C37.4549 193.072 34.3267 195.638 39.458 198.305C40.7238 198.965 41.8976 199.518 42.0576 199.527C42.2225 199.542 43.7503 198.921 45.4526 198.15Z" fill="white"/>
<path d="M102.479 100.247C98.2399 87.6419 96.1835 79.877 95.0534 72.2382C93.3705 60.8455 95.6403 52.0767 101.232 48.3761C102.964 47.2315 103.793 47.0181 106.509 47.0181C109.225 47.0181 110.055 47.2315 111.786 48.3761C119.076 53.197 120.38 64.8371 115.715 83.3933C114.095 89.8342 107.014 111.281 106.509 111.281C106.335 111.281 104.521 106.315 102.479 100.247Z" fill="black"/>
<path d="M171.015 144.683C170.346 144.411 166.529 143.344 162.527 142.302C148.608 138.688 134.984 136.685 120.803 136.171L112.538 135.871L112.887 132.233C114.837 111.814 127.68 92.938 149.626 78.223C168.823 65.3559 185.58 63.702 196.531 73.601C202.54 79.033 205.261 88.9756 203.287 98.2973C201.866 105.01 199.043 109.855 187.888 124.754C184.838 128.833 180.511 135.109 178.28 138.698C174.007 145.566 173.75 145.779 171.015 144.683Z" fill="black"/>
<path d="M34.7627 138.737C32.5157 135.124 28.1803 128.833 25.1281 124.754C16.4898 113.216 14.4784 110.214 12.3784 105.732C7.97359 96.333 7.93285 87.4089 12.2562 79.1833C16.1076 71.85 24.5267 67.1455 33.783 67.1455C44.8168 67.1455 59.1584 73.8434 73.0828 85.4932C89.214 98.9957 98.4873 115.04 100.136 132.306L100.49 136.016L95.6209 136.021C81.9341 136.035 62.4225 138.907 47.5814 143.092C44.1136 144.067 40.7283 144.969 40.0638 145.085C38.958 145.284 38.473 144.707 34.7627 138.737Z" fill="black"/>
</svg>
