<svg width="238" height="223" viewBox="0 0 238 223" fill="none" xmlns="http://www.w3.org/2000/svg">
<path d="M87.6667 222.715C73.6569 221.981 60.2857 218.634 50.0497 213.305C45.0512 210.698 43.4961 209.277 43.4961 207.313C43.4961 206.646 45.5467 201.398 48.0524 195.642L52.6087 185.18L48.3261 175.347L44.042 165.51L35.2852 154.789C30.4692 148.893 26.3085 143.785 26.0396 143.434C25.7708 143.084 23.267 124.542 20.4761 102.235L15.4017 61.6753L12.2267 60.6094C8.34741 59.3035 5.91371 57.5079 4.05711 54.5888C0.779606 49.4276 0.465755 43.8582 3.14575 38.4152C5.89019 32.8406 10.9155 29.86 17.5698 29.86C24.2242 29.86 29.2496 32.8406 31.9939 38.4152C35.1747 44.8761 34.2351 50.7287 28.9053 57.6567C28.6283 58.0168 33.3459 68.2145 42.3447 86.7133L56.2095 115.218L58.2259 80.1933C59.3302 60.9311 60.252 44.468 60.2664 43.6182C60.2952 42.2979 60.0312 41.9282 58.4996 41.136C55.2684 39.47 52.7238 36.8606 51.077 33.5142C47.0441 25.3186 50.5873 16.0298 59.3398 11.8624C64.7555 9.28373 71.4051 10.4543 76.4847 14.8804C77.6802 15.9232 79.1493 17.9484 80.0855 19.8511C81.4491 22.6213 81.6651 23.558 81.6651 26.6826C81.6651 29.8072 81.4491 30.7439 80.0855 33.5142C79.1541 35.401 77.7042 37.4089 76.5663 38.384L74.6266 40.0413L86.5479 74.6432C93.1063 93.675 98.5892 109.25 98.7284 109.255C98.8724 109.259 102.022 91.8169 105.724 70.4998L112.455 31.7368L110.395 30.3718C105.8 27.3298 103.28 22.6175 103.275 17.0702C103.265 10.6151 106.833 5.25077 113.113 2.26013C116.853 0.480347 121.856 0.480347 125.596 2.26013C129.509 4.12346 132.053 6.58357 133.858 10.2488C135.222 13.02 135.438 13.9538 135.433 17.0702C135.428 22.6175 132.908 27.3298 128.313 30.3718L126.253 31.7368L132.985 70.4998C136.686 91.8169 139.836 109.259 139.98 109.255C140.119 109.25 145.602 93.675 152.16 74.6432L164.082 40.0413L162.142 38.384C161.004 37.4089 159.554 35.401 158.623 33.5142C154.59 25.3186 158.133 16.0298 166.885 11.8624C170.626 10.0826 175.628 10.0826 179.368 11.8624C183.281 13.7258 185.826 16.1859 187.631 19.8511C188.995 22.6213 189.211 23.558 189.211 26.6826C189.211 29.8072 188.995 30.7439 187.631 33.5142C185.984 36.8606 183.44 39.47 180.209 41.136C178.677 41.9282 178.413 42.2979 178.442 43.6182C178.456 44.468 179.378 60.9311 180.482 80.1933L182.499 115.218L196.365 86.7133C205.362 68.2145 210.081 58.0168 209.803 57.6567C204.474 50.7287 203.533 44.8761 206.716 38.4152C209.457 32.8406 214.484 29.86 221.138 29.86C227.793 29.86 232.82 32.8406 235.561 38.4152C238.245 43.8582 237.928 49.4276 234.654 54.5888C232.796 57.5079 230.361 59.3035 226.482 60.6094L223.309 61.6753L218.234 102.235C215.439 124.542 212.938 143.084 212.669 143.434C212.4 143.785 208.238 148.893 203.422 154.789L194.665 165.51L190.382 175.347L186.1 185.18L190.656 195.642C193.162 201.398 195.212 206.646 195.212 207.313C195.212 209.277 193.657 210.698 188.659 213.305C180.727 217.434 171.082 220.358 160.193 221.933C156.102 222.523 148.857 222.687 122.715 222.759C104.893 222.811 89.1214 222.792 87.6667 222.715Z" fill="black"/>
<path d="M123.233 23.6709C125.72 21.9944 127.036 19.7157 127.036 17.0809C127.036 11.2206 120.184 7.3158 115.474 10.4908C112.987 12.1678 111.672 14.4465 111.672 17.0809C111.672 22.9416 118.523 26.8459 123.233 23.6709Z" fill="white"/>
<path d="M177.007 33.273C179.494 31.5964 180.81 29.3178 180.81 26.6829C180.81 24.0485 179.494 21.7699 177.007 20.0929C172.298 16.9179 165.446 20.8226 165.446 26.6829C165.446 32.5437 172.298 36.448 177.007 33.273Z" fill="white"/>
<path d="M69.4616 33.273C74.57 29.8306 74.57 23.5353 69.4616 20.0929C64.7516 16.9179 57.9004 20.8226 57.9004 26.6829C57.9004 32.5437 64.7516 36.448 69.4616 33.273Z" fill="white"/>
<path d="M224.97 52.2463C227.457 50.998 228.821 48.6599 228.821 45.6495C228.821 41.2181 225.714 38.2073 221.139 38.2073C216.563 38.2073 213.457 41.2181 213.457 45.6495C213.457 50.0762 216.563 53.0865 221.139 53.0865C222.33 53.0865 224.053 52.712 224.97 52.2463Z" fill="white"/>
<path d="M21.4019 52.2465C26.5972 49.6395 26.5972 41.6552 21.4019 39.0482C19.2644 37.9732 15.8767 37.9732 13.7393 39.0482C8.54394 41.6552 8.54394 49.6395 13.7393 52.2465C14.6582 52.7123 16.3823 53.0867 17.5706 53.0867C18.7589 53.0867 20.483 52.7123 21.4019 52.2465Z" fill="white"/>
<path d="M109.234 119.543C110.972 118.593 113.367 117.008 114.553 116.019C118.86 112.433 119.993 112.39 123.738 115.664C125.874 117.537 132.668 121.589 133.004 121.195C133.23 120.931 119.628 43.0083 119.354 43.0083C119.22 43.0083 116.114 60.3453 112.441 81.5375C108.773 102.73 105.671 120.336 105.551 120.667C105.21 121.589 105.815 121.406 109.234 119.543Z" fill="white"/>
<path d="M174.342 122.828C174.184 121.042 173.2 104.137 172.153 85.2591C171.106 66.3761 170.194 50.3595 170.127 49.6585C170.06 48.924 164.682 63.8459 157.332 85.1871C150.36 105.429 144.541 122.29 144.407 122.665C143.994 123.788 150.639 122.9 155.349 121.2C161.355 119.035 162.234 118.978 164.365 120.615C166.151 121.978 173.492 126.026 174.237 126.054C174.453 126.059 174.496 124.609 174.342 122.828Z" fill="white"/>
<path d="M68.1126 124.331C70.0234 123.371 72.616 121.839 73.8787 120.917C76.5722 118.954 77.1771 118.973 83.361 121.2C88.0709 122.9 94.7157 123.788 94.3028 122.665C94.1684 122.29 88.3494 105.429 81.3781 85.187C74.0276 63.8459 68.6503 48.924 68.5831 49.6585C68.5158 50.3595 67.6036 66.3761 66.557 85.2591C65.5103 104.137 64.5261 121.042 64.3677 122.828C64.214 124.609 64.2092 126.069 64.3629 126.069C64.5213 126.069 66.2065 125.286 68.1126 124.331Z" fill="white"/>
<path d="M209.586 102.302C211.698 85.4264 213.364 71.5607 213.288 71.4838C213.163 71.3638 186.44 126.087 185.71 127.945C185.489 128.517 186.228 128.56 190.448 128.229C198.961 127.566 198.481 127.475 202.197 130.49C204.031 131.978 205.577 133.145 205.635 133.087C205.697 133.025 207.473 119.174 209.586 102.302Z" fill="white"/>
<path d="M39.9206 128.07C40.8741 127.571 41.8343 127.547 44.4466 127.95C49.1052 128.675 53.2678 128.632 52.9653 127.869C52.2547 126.044 25.5406 71.3638 25.4235 71.4838C25.3462 71.5607 27.0016 85.3303 29.1031 102.086C31.2041 118.838 32.9258 132.722 32.9291 132.939C32.9325 133.155 34.2346 132.29 35.8228 131.018C37.411 129.746 39.2551 128.421 39.9206 128.07Z" fill="white"/>
<path d="M52.652 157.007C95.9391 142.118 142.77 142.123 186.061 157.011C188.03 157.688 189.792 158.077 189.979 157.876C191.146 156.642 202.87 142.104 202.861 141.912C202.851 141.777 201.31 140.467 199.433 138.993L196.019 136.318L193.335 136.76C185.01 138.129 172.762 135.44 163.866 130.288L160.606 128.401L156.904 129.616C144.82 133.582 132.687 131.901 121.875 124.757L119.354 123.091L116.834 124.757C110.712 128.8 103.659 131.205 96.5249 131.676C91.5557 132.002 87.2298 131.397 81.8045 129.616L78.1029 128.401L74.8429 130.288C65.9463 135.44 53.6986 138.129 45.3729 136.76L42.6886 136.318L39.2765 138.993C37.4002 140.467 35.907 141.821 35.9593 142.008C36.0414 142.301 48.8783 158.236 49.0319 158.236C49.0655 158.236 50.6931 157.684 52.652 157.007Z" fill="white"/>
<path d="M70.9581 175.597C102.732 165.313 135.975 165.313 167.749 175.597C171.792 176.903 176.041 178.377 177.193 178.872C178.715 179.525 179.358 179.616 179.531 179.208C179.661 178.896 181.058 175.698 182.628 172.097L185.485 165.558L183.747 165.001C151.593 154.717 123.358 152.062 91.7471 156.349C79.8258 157.963 69.0184 160.507 54.9607 165.001L53.2227 165.558L56.0793 172.097C57.6493 175.698 59.0465 178.896 59.1761 179.208C59.3489 179.616 59.9923 179.525 61.5142 178.872C62.6665 178.377 66.9155 176.903 70.9581 175.597Z" fill="white"/>
<path d="M71.1037 195.435C80.49 193.116 90.7212 191.321 100.151 190.327C107.972 189.506 130.739 189.506 138.56 190.327C151.677 191.705 170.161 195.493 179.73 198.758C181.645 199.411 183.211 199.862 183.211 199.752C183.211 199.646 182.159 197.121 180.872 194.139C178.092 187.691 178.534 188.003 166.301 183.946C157.971 181.181 148.407 179.03 138.08 177.594C129.663 176.428 109.047 176.428 100.631 177.594C90.3035 179.03 80.7396 181.181 72.4096 183.946C60.1763 188.003 60.618 187.691 57.8382 194.139C56.5515 197.121 55.5 199.646 55.5 199.752C55.5 199.862 57.0652 199.411 58.9808 198.758C60.8965 198.105 66.3506 196.612 71.1037 195.435Z" fill="white"/>
<path d="M160.164 213.295C166.818 212.33 170.967 211.365 176.425 209.502L180.919 207.971L177.626 206.852C172.248 205.033 159.482 202.032 151.762 200.774C139.807 198.825 133.311 198.335 119.354 198.335C105.397 198.335 98.9013 198.825 86.9464 200.774C79.2262 202.032 66.4599 205.033 61.0827 206.852L57.7891 207.971L62.2829 209.512C69.5567 212.004 78.3476 213.583 87.6666 214.073C89.1166 214.15 104.893 214.169 122.715 214.116C148.8 214.044 156.107 213.881 160.164 213.295Z" fill="white"/>
</svg>
