<svg width="214" height="210" viewBox="0 0 214 210" fill="none" xmlns="http://www.w3.org/2000/svg">
<path d="M84.231 208.745C66.2978 207.616 49.8821 203.539 37.5015 197.128C34.0339 195.335 32.9172 194.51 32.5687 193.496C32.251 192.571 32.4611 189.356 33.2819 182.59L34.4455 172.997L33.3207 160.432L32.196 147.866L29.3415 142.887C25.4121 136.031 20.7121 129.075 15.0808 121.787C7.05314 111.393 4.36364 106.898 2.17013 100.212C1.03497 96.7507 0.84293 95.3756 0.811634 90.4917C0.781288 85.7831 0.966688 84.1899 1.8861 81.2453C5.29728 70.3252 12.6659 62.2738 22.5182 58.6938C31.783 55.332 40.4935 55.3557 51.3567 58.7697C61.9118 62.0889 75.1222 70.0976 84.7715 79.031L87.5786 81.6294L86.5307 77.4757C84.3637 68.8837 83.9607 62.3117 85.222 56.2139C86.6208 49.4428 89.8641 43.3876 94.051 39.7507C96.0283 38.0342 102.083 34.7767 103.302 34.7767C103.772 34.7767 103.909 32.899 103.909 26.4778V18.1798H96.0852H88.2614V14.6235V11.0672H96.0852H103.909V5.85137V0.635498H107.465H111.022V5.85137V11.0672H118.608H126.195V14.6235V18.1798H118.608H111.022V26.3592V34.5396L114.459 36.0854C122.193 39.5658 127.205 46.3986 129.234 56.2139C130.491 62.3117 130.088 68.8837 127.921 77.4757L126.873 81.6294L129.68 79.031C136.684 72.5491 146.063 66.181 154.408 62.2454C165.755 56.8967 176.462 55.0285 185.319 56.8588C193.456 58.5421 198.572 61.1974 203.959 66.5461C211.726 74.2561 215.353 85.9444 213.229 96.433C211.669 104.152 208.468 110.013 199.383 121.787C193.745 129.094 189.037 136.055 185.115 142.887L182.256 147.866L181.132 160.432L180.009 172.997L181.17 182.59C181.991 189.356 182.199 192.571 181.882 193.496C181.535 194.51 180.416 195.335 176.95 197.128C164.171 203.742 148.443 207.569 129.04 208.778C120.059 209.338 93.3445 209.319 84.231 208.745Z" fill="black"/>
<path d="M107.835 111.711C107.973 111.256 109.827 105.864 111.961 99.7381C119.998 76.6128 120.756 73.8437 121.278 65.816C121.804 57.6365 120.235 51.9939 116.129 47.3328C113.748 44.6253 110.216 42.8472 107.228 42.8472C104.236 42.8472 100.709 44.6253 98.3235 47.3328C94.2219 51.9939 92.6477 57.6365 93.1787 65.816C93.6956 73.8437 94.4543 76.6128 102.496 99.7381C104.625 105.864 106.479 111.256 106.617 111.711C106.749 112.166 107.025 112.541 107.228 112.541C107.428 112.541 107.703 112.166 107.835 111.711Z" fill="white"/>
<path d="M178.316 138.113C181.384 132.551 187.733 123.19 193.57 115.623C202.437 104.124 204.78 99.4156 205.235 92.175C205.737 84.1616 203.357 77.6939 197.914 72.2694C192.247 66.6267 185.652 64.3318 176.457 64.8107C167.865 65.2611 160.222 67.8928 150.44 73.782C134.583 83.327 120.268 99.8945 116.389 113.2C115.451 116.41 113.355 125.922 112.283 131.801L112.018 133.286L118.277 133.599C136.485 134.514 159.861 137.823 171.953 141.195C175.969 142.314 176.007 142.295 178.316 138.113Z" fill="white"/>
<path d="M47.2459 140.104C61.1201 136.932 77.1565 134.713 92.5291 133.836C97.873 133.532 102.297 133.248 102.354 133.2C102.596 133.001 99.1154 116.756 98.0722 113.2C94.1603 99.8613 79.864 83.3223 64.0125 73.782C54.2304 67.8928 46.5915 65.2611 37.9995 64.8107C28.803 64.3318 22.204 66.6267 16.5414 72.2694C11.0908 77.6986 8.70433 84.19 9.23161 92.1513C9.71905 99.5104 12.1648 104.385 21.249 116.102C26.7892 123.247 33.0952 132.584 36.1218 138.117C38.5685 142.589 37.3499 142.371 47.2459 140.104Z" fill="white"/>
<path d="M62.1157 162.11C96.2038 154.528 132.269 155.728 165.893 165.558L172.033 167.35L172.612 160.219C172.925 156.292 173.299 152.423 173.437 151.622L173.683 150.166L166.888 148.625C128.002 139.801 86.4501 139.801 47.5634 148.625L40.7686 150.166L41.0199 151.622C41.1526 152.423 41.5272 156.292 41.8449 160.219L42.4187 167.35L48.5592 165.558C51.94 164.567 58.0378 163.016 62.1157 162.11Z" fill="white"/>
<path d="M60.5223 179.394C77.9385 174.88 88.8587 173.5 107.228 173.5C117.276 173.5 122.501 173.718 127.617 174.344C140.719 175.947 155.314 179.266 167.097 183.315C171.796 184.932 173.1 185.231 172.929 184.653C172.806 184.24 172.564 182.358 172.388 180.47C172.213 178.588 171.829 176.729 171.535 176.345C170.881 175.482 160.316 172.372 151.482 170.442C118.196 163.163 82.3531 164.334 49.9293 173.761C46.3636 174.795 43.2103 175.961 42.9163 176.345C42.6271 176.729 42.243 178.588 42.0628 180.47C41.8874 182.358 41.6456 184.24 41.5223 184.653C41.3516 185.231 42.6555 184.932 47.3546 183.315C50.6832 182.173 56.6104 180.409 60.5223 179.394Z" fill="white"/>
<path d="M129.04 200.243C138.239 199.67 147.784 198.351 154.408 196.744C160.316 195.307 167.652 192.68 167.125 192.192C166.561 191.661 157.101 188.683 151.563 187.289C135.958 183.372 124.696 182.035 107.228 182.035C89.7549 182.035 78.4933 183.372 62.8931 187.289C57.3501 188.683 47.8904 191.661 47.3261 192.192C46.8046 192.68 54.1352 195.302 60.0481 196.744C66.2455 198.252 76.5208 199.726 84.2308 200.21C93.3443 200.784 120.059 200.803 129.04 200.243Z" fill="white"/>
</svg>
