<svg width="166" height="192" viewBox="0 0 166 192" fill="none" xmlns="http://www.w3.org/2000/svg">
<path d="M2.78818 191.237C0.589429 190.035 0.349002 188.605 0.511387 177.694L0.661169 167.64L2.02084 166.467C3.25061 165.411 3.81969 165.299 7.95882 165.299H12.5347L12.5395 156.695C12.5395 149.022 12.6413 147.936 13.4751 146.637C13.9937 145.837 18.5648 140.82 23.6351 135.488L32.8644 125.793L32.8741 91.3773L32.8886 56.9613L21.478 48.2846C15.2056 43.5149 9.86382 39.2201 9.60691 38.7451C9.33788 38.241 9.14399 30.7567 9.14399 20.8575C9.14399 2.23798 9.223 1.66309 11.9385 0.538994C12.9273 0.12891 17.5565 0.0057888 28.1867 0.107098C46.592 0.282571 45.1814 -0.404779 45.4189 8.50121L45.5789 14.5482H53.7806H61.9774V9.44304C61.9774 3.51574 62.6269 1.42848 64.7307 0.557415C65.768 0.126488 70.9062 0.00821245 84.1636 0.110491C106.233 0.280147 104.314 -0.509482 104.556 8.50121L104.716 14.5482H112.918H121.115V9.19243C121.115 3.17545 121.667 1.46774 123.912 0.538994C124.901 0.12891 129.53 0.0057888 140.16 0.107098C154.891 0.24767 155.032 0.258819 156.127 1.35238C157.227 2.45514 157.227 2.47162 157.368 20.1944C157.484 34.8527 157.387 38.1101 156.82 38.9632C156.442 39.5304 151.095 43.8154 144.93 48.4785L133.728 56.9613V91.3773L133.723 125.793L143.471 136.205C148.832 141.935 153.413 147.126 153.65 147.752C153.888 148.372 154.077 152.555 154.077 157.044V165.207L158.914 165.377C166.243 165.629 165.953 165.081 165.953 178.629C165.953 189.308 165.933 189.531 164.852 190.612L163.747 191.717L83.9019 191.824C15.5837 191.911 3.87252 191.828 2.78672 191.237H2.78818Z" fill="black"/>
<path d="M148.745 20.6071V8.7312H139.336H129.923L129.763 14.7782C129.525 23.6357 130.742 22.9959 113.747 23.1752C104.024 23.277 99.6949 23.151 98.706 22.7438C96.4617 21.8122 95.9091 20.1064 95.9091 14.0875V8.7312H83.3061H70.703V14.5213C70.703 19.9416 70.6303 20.3977 69.5348 21.6711L68.3666 23.0298L54.6632 23.1752C44.9007 23.277 40.5575 23.151 39.5687 22.7438C37.3244 21.8122 36.7718 20.1064 36.7718 14.0875V8.7312H27.3195H17.8672V20.6071V32.4821H83.3061H148.745V20.6071Z" fill="white"/>
<path d="M134.338 45.9336L140.223 41.4499L111.764 41.3238C96.1121 41.256 70.5134 41.256 54.8808 41.3238L26.4561 41.4499L32.2195 45.9094L37.983 50.369L83.2182 50.3932L128.453 50.4174L134.338 45.9336Z" fill="white"/>
<path d="M124.992 91.1351V59.1428H83.3052H41.6182V91.1351V123.127H83.3052H124.992V91.1351Z" fill="white"/>
<path d="M138.725 143.821C138.236 143.205 135.55 140.258 132.749 137.277L127.659 131.853H83.2719H38.8802L32.6998 138.396L26.5146 144.94H83.0635H139.608L138.725 143.821Z" fill="white"/>
<path d="M145.351 159.482V153.665H83.3055H21.2598V159.482V165.299H83.3055H145.351V159.482Z" fill="white"/>
<path d="M157.47 178.629V174.024H83.3057H9.1416L9.14402 178.629V183.234H83.3081H157.467V178.629H157.47Z" fill="white"/>
</svg>
