<svg width="164" height="212" viewBox="0 0 164 212" fill="none" xmlns="http://www.w3.org/2000/svg">
<path d="M4.85032 210.508C1.767 209.265 0.481535 203.267 0.467892 190.048C0.456775 179.109 1.22533 174.354 4.68155 163.97C11.2383 144.269 25.5987 127.2 43.3801 117.968L48.4634 115.33L45.9066 113.249C40.4544 108.807 35.6036 101.147 33.4005 93.5118C32.4607 90.2425 32.2484 88.3174 32.2737 83.1785C32.304 77.691 32.491 76.3014 33.7087 72.5673C37.5187 60.9102 44.1936 53.0781 54.7189 47.8988L59.5192 45.534L57.3818 42.3507C53.107 35.9688 51.773 28.3055 53.7033 21.1611C55.8457 13.2113 60.1357 7.98706 67.4978 4.35955C77.0024 -0.326556 87.0073 -0.326556 96.5119 4.35955C103.874 7.98706 108.164 13.2113 110.306 21.1611C112.237 28.3055 110.903 35.9688 106.628 42.3507L104.49 45.534L109.291 47.8988C119.816 53.0781 126.491 60.9102 130.301 72.5673C131.519 76.3014 131.706 77.691 131.736 83.1785C131.761 88.3174 131.549 90.2425 130.609 93.5118C128.406 101.147 123.555 108.807 118.103 113.249L115.546 115.33L120.63 117.968C138.411 127.2 152.771 144.269 159.33 163.97C162.786 174.354 163.554 179.109 163.539 190.048C163.529 203.515 162.246 209.305 159.002 210.538C157.37 211.155 6.39248 211.129 4.85133 210.508H4.85032Z" fill="black"/>
<path d="M154.125 200.533C154.338 199.77 154.499 194.94 154.479 189.796C154.444 179.377 153.595 174.005 150.664 165.698C143.489 145.36 126.784 128.488 106.764 121.354C101.731 119.565 100.812 118.903 100.412 116.781C99.9223 114.148 101.049 112.89 106.107 110.454C121.893 102.835 127.643 83.2292 118.644 67.7065C116.203 63.4974 110.503 58.3131 105.688 55.9281C101.666 53.9372 99.5737 53.4016 92.5652 52.5881C89.968 52.2849 88.255 50.9964 87.7447 48.9651C87.2141 46.8581 88.5077 45.2007 92.0902 43.3917C96.1579 41.3453 98.841 38.7531 100.599 35.1756C101.792 32.7502 101.964 31.7902 101.964 27.5972C101.964 23.3709 101.797 22.4548 100.559 19.9365C98.8157 16.3893 96.0164 13.8108 91.6658 11.7502C88.4723 10.2358 88.0378 10.1646 82.0045 10.1646C75.9713 10.1646 75.5368 10.2358 72.3433 11.7502C67.9927 13.8108 65.1934 16.3893 63.4501 19.9365C62.2121 22.4548 62.0454 23.3709 62.0454 27.5972C62.0454 31.7902 62.2172 32.7502 63.4097 35.1756C65.1681 38.7531 67.8512 41.3453 71.9188 43.3917C75.5014 45.2007 76.7949 46.8581 76.2644 48.9651C75.754 50.9964 74.0411 52.2849 71.4439 52.5881C64.4354 53.4016 62.3435 53.9372 58.3214 55.9281C53.5059 58.3131 47.8062 63.4974 45.3656 67.7065C41.687 74.048 40.3227 81.7739 41.5658 89.1664C43.0564 97.9939 49.509 106.407 57.902 110.454C62.96 112.89 64.0868 114.148 63.5966 116.781C63.1974 118.903 62.2778 119.565 57.2451 121.354C37.2253 128.488 20.5202 145.36 13.345 165.698C10.4143 174.005 9.5654 179.377 9.53003 189.796C9.50982 194.94 9.67151 199.77 9.88373 200.533L10.2728 201.923H82.0045H153.736L154.125 200.533Z" fill="white"/>
</svg>
