<svg width="31" height="20" viewBox="0 0 31 20" fill="none" xmlns="http://www.w3.org/2000/svg">
<path d="M1.58559 20C1.31611 20 1.09092 19.9083 0.910003 19.7248C0.729087 19.5414 0.637997 19.3156 0.636732 19.0473C0.635467 18.7791 0.726557 18.5539 0.910003 18.3718C1.09345 18.1896 1.31864 18.0991 1.58559 18.1004H30.0513C30.3208 18.1004 30.546 18.1915 30.7269 18.3737C30.909 18.5558 31.0001 18.7817 31.0001 19.0511C31.0001 19.3206 30.909 19.5458 30.7269 19.7267C30.5447 19.9076 30.3195 19.9981 30.0513 19.9981L1.58559 20ZM1.58559 10.9479C1.31611 10.9479 1.09092 10.8568 0.910003 10.6746C0.729087 10.4925 0.637997 10.2666 0.636732 9.99715C0.635467 9.72768 0.726557 9.50248 0.910003 9.32157C1.09345 9.14065 1.31864 9.05019 1.58559 9.05019H30.0513C30.3208 9.05019 30.546 9.14128 30.7269 9.32347C30.9078 9.50565 30.9989 9.73147 31.0001 10.0009C31.0014 10.2704 30.9103 10.4956 30.7269 10.6765C30.5434 10.8575 30.3182 10.9479 30.0513 10.9479H1.58559ZM1.58559 1.89582C1.31611 1.89582 1.09092 1.80536 0.910003 1.62444C0.727822 1.44226 0.636732 1.21643 0.636732 0.946959C0.636732 0.677484 0.727822 0.452289 0.910003 0.271373C1.09218 0.0904579 1.31738 0 1.58559 0H30.0513C30.3208 0 30.546 0.0910903 30.7269 0.273271C30.9078 0.455451 30.9989 0.680014 31.0001 0.946959C31.0014 1.2139 30.9103 1.4391 30.7269 1.62254C30.5434 1.80599 30.3182 1.89708 30.0513 1.89582H1.58559Z" fill="white"/>
</svg>
