<svg width="194" height="202" viewBox="0 0 194 202" fill="none" xmlns="http://www.w3.org/2000/svg">
<path d="M7.28275 194.693L0.269531 187.664L1.82617 186.194C6.46469 181.806 15.5328 176.647 22.9472 174.182C31.8364 171.227 33.1308 171.089 52.6376 171.032C69.389 170.979 70.7167 170.913 74.2907 169.942C79.6349 168.491 84.4891 165.906 88.0963 162.604C91.7607 159.244 91.9843 158.43 89.2242 158.43C86.3783 158.43 75.942 156.232 70.9594 154.585C65.1821 152.672 55.0171 147.68 55.0171 146.752C55.0171 146.357 56.5161 140.047 58.3483 132.732C60.1805 125.418 61.6748 119.264 61.6653 119.064C61.6605 118.86 60.1377 117.732 58.2817 116.552C43.5624 107.21 38.0753 87.1321 45.7182 70.571C50.3153 60.6154 57.092 53.9624 76.2418 40.6089C85.5646 34.1082 93.688 27.8597 95.8629 25.5183L96.9717 24.3238L95.0158 23.9955C92.2556 23.5291 88.8482 21.0668 87.154 18.3171C85.8786 16.2451 85.7121 15.5551 85.7121 12.3314C85.7121 9.10767 85.8786 8.41763 87.154 6.3456C91.9368 -1.42477 102.806 -1.42477 107.589 6.3456C108.864 8.41763 109.031 9.10767 109.031 12.3314C109.031 15.5551 108.864 16.2451 107.589 18.3171C105.895 21.0668 102.487 23.5291 99.7271 23.9955L97.7712 24.3238L98.88 25.5183C101.055 27.8597 109.178 34.1082 118.501 40.6089C137.651 53.9624 144.428 60.6154 149.025 70.571C156.668 87.1321 151.181 107.21 136.461 116.552C134.605 117.732 133.082 118.86 133.078 119.064C133.068 119.264 134.562 125.418 136.395 132.732C138.227 140.047 139.726 146.357 139.726 146.752C139.726 147.68 129.561 152.672 123.783 154.585C118.801 156.232 108.365 158.43 105.519 158.43C102.759 158.43 102.982 159.244 106.647 162.604C110.254 165.906 115.108 168.491 120.452 169.942C124.026 170.913 125.354 170.979 142.105 171.032C157.324 171.075 160.513 171.208 163.758 171.931C173.033 173.992 182.409 178.142 189.161 183.177C195.334 187.783 195.5 186.665 187.41 194.741L180.4 201.741L177.573 199.628C170.378 194.241 161.212 190.482 152.099 189.168C149.348 188.773 141.644 188.231 134.967 187.964C128.295 187.698 120.919 187.146 118.582 186.736C112.457 185.67 105.928 183.367 101.526 180.721C99.4178 179.455 97.5475 178.418 97.3714 178.418C97.1954 178.418 95.3251 179.455 93.2169 180.721C88.8149 183.367 82.2857 185.67 76.1609 186.736C73.8243 187.146 66.4528 187.698 59.776 187.964C42.4393 188.654 35.4674 189.872 27.0584 193.67C24.5372 194.807 18.8198 198.362 15.2639 200.999C14.344 201.679 13.9471 201.365 7.28275 194.693Z" fill="black"/>
<path d="M101.178 83.4773V77.5286H106.889H112.6V73.9594V70.3902H106.889H101.178V64.4416V58.4929H97.6091H94.0399V64.4416V70.3902H88.0912H82.1426V73.9594V77.5286H88.0912H94.0399V83.4773V89.4259H97.6091H101.178V83.4773Z" fill="white"/>
<path d="M75.1327 119.636C77.4265 118.693 81.3907 117.366 83.9367 116.685C88.1293 115.567 89.3999 115.448 97.3711 115.448C105.342 115.448 106.613 115.567 110.806 116.685C114.498 117.67 120.804 119.964 124.264 121.577C124.673 121.768 127.828 116.747 127.828 115.905C127.828 115.414 123.507 113.401 119.205 111.883C111.386 109.123 106.089 108.243 97.3711 108.243C88.6528 108.243 83.3561 109.123 75.5372 111.883C71.2352 113.401 66.9141 115.414 66.9141 115.905C66.9141 116.747 70.0692 121.768 70.4785 121.577C70.745 121.453 72.8389 120.578 75.1327 119.636Z" fill="white"/>
<path d="M65.6387 148.498C74.0382 142.735 86.6636 138.923 97.3712 138.923C108.079 138.923 120.704 142.735 129.104 148.498C130.198 149.25 131.188 149.864 131.307 149.864C131.55 149.864 135.443 144.782 135.443 144.468C135.443 143.954 129.008 140.166 124.497 138.019C113.114 132.604 100.693 130.705 88.4815 132.518C81.7191 133.522 76.1892 135.188 70.2453 138.019C65.7339 140.166 59.2998 143.954 59.2998 144.468C59.2998 144.782 63.1926 149.864 63.4353 149.864C63.5543 149.864 64.5441 149.25 65.6387 148.498Z" fill="white"/>
</svg>
