<svg width="207" height="205" viewBox="0 0 207 205" fill="none" xmlns="http://www.w3.org/2000/svg">
<path d="M57.7043 201.028C57.0048 194.478 58.3512 187.104 61.3265 181.211C63.7796 176.348 67.1286 172.405 77.607 162.046C83.8212 155.899 89.034 150.293 90.5289 148.152C95.3872 141.181 99.1052 132.561 100.907 124.086C101.831 119.74 102.114 107.891 101.415 102.98L101.017 100.206L98.0607 102.309C92.546 106.229 86.9834 109.496 77.0608 114.656C58.1068 124.512 54.8727 127.435 47.7051 141.171C43.6996 148.846 41.4046 152.258 38.5635 154.764C36.2781 156.776 32.9338 158.213 30.5526 158.213C27.4052 158.213 24.4366 155.248 24.4328 152.105L24.4308 150.547H21.8196C17.9459 150.547 14.5188 149.685 10.9081 147.807C1.0531 142.675 -2.37933 131.66 1.89826 118.892C3.94459 112.783 5.90036 109.218 13.3219 98.0836C21.0343 86.5081 23.4041 82.2535 25.4643 76.2836C27.0066 71.8134 27.0353 71.5739 27.0603 63.1078C27.0924 52.3132 27.032 52.4474 35.66 43.943C42.8756 36.8376 45.9898 32.5111 45.9898 29.6125C45.9898 28.5766 45.549 22.3605 45.0028 15.7984C44.4614 9.23592 44.0829 3.34178 44.1644 2.69975C44.3081 1.59826 45.137 2.02563 58.9788 10.336L73.6399 19.1389L82.3551 9.8607C87.1511 4.75758 91.238 0.58252 91.4392 0.58252C91.6405 0.58252 94.4289 6.35018 97.6343 13.399C100.844 20.4478 103.647 26.1748 103.868 26.1254C107.092 25.3972 113.896 24.9439 118.337 25.1624C135.327 25.9965 149.906 32.5543 162.177 44.8773C173.508 56.2564 180.896 69.3843 188.087 90.8968C198.144 121 204.723 159.32 205.853 194.411L206.17 204.209H132.107H58.0445L57.7043 201.028Z" fill="black"/>
<path d="M43.1058 71.3536C46.1865 69.83 48.0359 68.4789 50.7717 65.7479C54.0824 62.4419 57.9681 56.8123 57.9681 55.3222C57.9681 53.7171 53.4883 53.3195 50.5369 54.6562C47.9065 55.854 46.1913 57.9526 41.7786 65.3742C36.3933 74.4343 36.5753 74.0415 37.9265 73.6677C38.5397 73.5001 40.873 72.4556 43.1058 71.3536Z" fill="white"/>
<path d="M19.0411 127.569C19.6342 126.692 20.1191 125.451 20.1191 124.819C20.1191 122.097 17.4494 119.4 14.7529 119.405C12.6683 119.409 10.5362 121.206 9.22964 124.062C8.24217 126.218 7.93937 127.76 7.75634 131.555L7.52637 136.337L12.7445 132.753C15.6149 130.784 18.4484 128.45 19.0411 127.569Z" fill="white"/>
<path d="M202.011 199.633C203.213 198.431 203.228 198.335 202.916 193.285C201.172 164.753 198.125 142.838 192.308 117.009C187.383 95.1275 182.352 79.9538 175.779 67.1804C171.452 58.7671 167.15 52.7397 161.223 46.8034C151.986 37.5516 142.029 32.0752 129.318 29.2623C120.44 27.297 103.695 27.9629 101.098 30.3839C99.6848 31.6967 99.9339 34.4181 101.572 35.6351C102.713 36.4831 103.01 36.4927 107.562 35.8076C125.495 33.1053 142.073 38.3086 155.301 50.7849C168.271 63.0169 177.365 83.5136 185.122 117.967C190.742 142.925 193.827 164.533 195.495 190.554C195.954 197.774 196.127 198.819 197.028 199.777C198.393 201.234 200.473 201.176 202.011 199.633Z" fill="white"/>
</svg>
