<svg width="238" height="222" viewBox="0 0 238 222" fill="none" xmlns="http://www.w3.org/2000/svg">
<path d="M83.7527 221.737C73.4041 221.007 63.7901 218.998 56.0748 215.95C51.4077 214.106 45.5763 211.103 45.0716 210.284C44.9117 210.024 46.9255 204.882 49.5439 198.851C52.1672 192.824 54.3109 187.633 54.3109 187.313C54.3109 186.683 46.3908 168.36 44.8218 165.361C44.3021 164.367 39.8393 158.636 34.9019 152.624L25.9249 141.686L25.3333 136.884C25.0075 134.236 22.5625 114.648 19.8996 93.3508L15.0576 54.6247L12.2114 54.2699C3.99346 53.2406 -0.914512 45.9351 1.57695 38.4347C2.6358 35.2467 4.2543 33.2734 7.26744 31.502C9.23822 30.3437 10.1542 30.1378 13.3362 30.1378C16.5182 30.1378 17.4342 30.3437 19.405 31.502C22.4181 33.2734 24.0366 35.2467 25.0954 38.4347C26.9033 43.8763 24.5493 49.9626 19.5559 52.7609C18.9782 53.0807 22.6744 61.0707 37.8861 92.3714C48.3646 113.933 56.9693 131.617 57.0093 131.667C57.1092 131.807 62.356 37.8251 62.331 36.316C62.311 35.1917 61.9962 34.9254 60.1573 34.4621C57.1742 33.7111 54.136 31.369 52.4721 28.5348C51.2628 26.4776 51.0629 25.6061 51.0629 22.3531C51.0629 19.0117 51.2428 18.2771 52.577 16.107C57.5989 7.94799 69.0118 7.94799 74.0337 16.107C75.3729 18.2826 75.5478 19.0072 75.5478 22.3926C75.5478 25.7725 75.3729 26.505 74.0387 28.6777C73.1393 30.1453 71.5153 31.8073 70.0112 32.7997L67.4928 34.4626L83.2631 80.144C91.9327 105.273 99.1433 125.831 99.2832 125.826C99.4531 125.826 115.838 32.6083 116.962 25.2378C116.992 25.014 116.178 24.5348 115.148 24.1705C112.39 23.1976 109.982 21.1693 108.413 18.503C107.228 16.4872 107.028 15.5978 107.028 12.3593C107.028 9.01783 107.208 8.28328 108.542 6.11312C113.564 -2.04585 124.977 -2.04585 129.999 6.11312C131.333 8.28328 131.513 9.01783 131.513 12.3593C131.513 15.5978 131.313 16.4872 130.129 18.503C128.56 21.1693 126.152 23.1976 123.393 24.1705C122.364 24.5348 121.549 25.014 121.579 25.2363C122.704 32.6078 139.089 125.824 139.259 125.824C139.398 125.829 146.609 105.272 155.279 80.1425L171.049 34.4611L168.53 32.7982C167.026 31.8058 165.402 30.1438 164.503 28.6762C163.169 26.5035 162.994 25.771 162.994 22.3911C162.994 19.0057 163.169 18.2811 164.508 16.1055C169.53 7.94649 180.943 7.94649 185.965 16.1055C187.299 18.2756 187.479 19.0102 187.479 22.3516C187.479 25.6046 187.279 26.4761 186.07 28.5333C184.406 31.3675 181.368 33.7096 178.384 34.4606C176.546 34.9239 176.231 35.1902 176.211 36.3145C176.186 37.8236 181.432 131.806 181.532 131.666C181.572 131.616 190.177 113.932 200.656 92.3699C215.866 61.0692 219.564 53.0792 218.984 52.7594C213.992 49.9611 211.639 43.8748 213.448 38.4332C214.507 35.2452 216.121 33.2719 219.139 31.5005C221.108 30.3422 222.022 30.1363 225.205 30.1363C228.389 30.1363 229.303 30.3422 231.272 31.5005C234.285 33.2719 235.904 35.2452 236.963 38.4332C239.457 45.9336 234.55 53.2391 226.33 54.2684L223.487 54.6232L218.645 93.3493C215.981 114.646 213.533 134.234 213.208 136.882L212.618 141.685L203.639 152.623C198.702 158.634 194.24 164.366 193.72 165.36C192.151 168.358 184.231 186.682 184.231 187.311C184.231 187.631 186.374 192.823 188.998 198.849C191.616 204.881 193.63 210.022 193.47 210.282C192.326 212.136 180.308 217.168 172.588 219.032C161.395 221.725 159.156 221.86 122.769 221.985C104.22 222.05 86.661 221.935 83.7527 221.735V221.737Z" fill="black"/>
<path d="M58.5578 165.801C67.2025 162.563 75.7672 160.115 84.7916 158.301C97.9685 155.647 103.7 155.118 119.27 155.118C134.841 155.118 140.572 155.647 153.749 158.301C162.818 160.125 171.348 162.568 180.133 165.861C187.608 168.659 188.792 168.704 190.196 166.206C191.351 164.147 190.471 162.303 187.673 160.914C183.536 158.855 171.453 154.888 163.138 152.849C146.658 148.807 136.425 147.577 119.27 147.577C111.49 147.577 103.865 147.842 100.782 148.222C83.5724 150.341 68.5416 153.968 54.4404 159.405C49.2036 161.424 47.8145 162.533 47.8145 164.687C47.8145 166.021 49.8732 168.305 51.0774 168.305C51.5272 168.305 54.8901 167.175 58.5578 165.801Z" fill="white"/>
<path d="M70.3013 187.393C80.2701 183.101 90.5938 180.172 101.782 178.458C109.792 177.229 128.7 177.224 136.76 178.448C148.423 180.217 159.666 183.535 170.944 188.532C176.076 190.806 177.11 191.106 178.335 190.681C181.088 189.721 181.583 186.593 179.289 184.665C175.831 181.756 159.042 175.51 148.253 173.122C136.95 170.618 131.818 170.079 119.271 170.079C106.724 170.079 101.592 170.618 90.2889 173.122C79.5006 175.51 62.711 181.756 59.2531 184.665C56.9945 186.563 57.3643 189.442 60.0026 190.551C61.2768 191.086 61.8115 191.086 63.0508 190.536C63.8802 190.166 67.1432 188.752 70.3013 187.393Z" fill="white"/>
<path d="M54.2114 213.082C56.8048 211.743 71.6057 206.896 77.7969 205.357C84.8525 203.603 92.9375 202.154 101.033 201.194C108.203 200.35 130.339 200.35 137.51 201.194C153.43 203.078 168.006 206.666 181.838 212.103L186.19 213.817L188.234 212.772C190.517 211.608 190.982 210.848 190.522 209.03C190.118 207.406 187.434 206.071 178.235 202.898C139.159 189.432 99.3835 189.432 60.3076 202.898C51.1083 206.071 48.425 207.406 48.0202 209.03C47.5705 210.823 48.0202 211.598 50.1639 212.727C52.4675 213.942 52.5225 213.947 54.2114 213.082Z" fill="white"/>
</svg>
