<svg width="166" height="192" viewBox="0 0 166 192" fill="none" xmlns="http://www.w3.org/2000/svg">
<path d="M0.978516 182.54V173.154H7.32043H13.6623V162.322V151.485L24.3168 140.141L34.9712 128.796V90.9682V53.14L22.5715 43.7692L10.1667 34.3933L10.1413 17.2701L10.1109 0.146973H24.5704H39.03V7.75727V15.3676H52.2212H65.4124V7.75727V0.146973H83.1697H100.927V7.75727V15.3676H114.118H127.309V7.75727V0.146973H141.769H156.229L156.203 17.2701L156.178 34.3933L143.773 43.7793L131.368 53.1654V91.0646V128.959L142.007 140.278L152.647 151.592L152.662 162.373L152.677 173.154H159.019H165.361V182.54V191.926H83.1697H0.978516V182.54Z" fill="black"/>
<path d="M151.942 36.4481C152.627 35.7632 153.185 34.6115 153.185 33.886C153.185 33.1655 152.627 32.0088 151.942 31.3238L150.694 30.0808H83.1701H15.6464L14.3983 31.3238C13.7134 32.0088 13.1553 33.1655 13.1553 33.886C13.1553 34.6064 13.7134 35.7632 14.3983 36.4481L15.6464 37.6911H83.1701H150.694L151.942 36.4481Z" fill="white"/>
<path d="M126.574 55.7274C127.259 55.0425 127.817 53.8908 127.817 53.1653C127.817 52.4448 127.259 51.288 126.574 50.6031L125.325 49.3601H83.1695H41.0136L39.7655 50.6031C39.0805 51.288 38.5225 52.4448 38.5225 53.1653C38.5225 53.8857 39.0805 55.0425 39.7655 55.7274L41.0136 56.9704H83.1695H125.325L126.574 55.7274Z" fill="white"/>
<path d="M126.574 131.323C127.259 130.638 127.817 129.486 127.817 128.761C127.817 128.041 127.259 126.884 126.574 126.199L125.325 124.956H83.1695H41.0136L39.7655 126.199C39.0805 126.884 38.5225 128.041 38.5225 128.761C38.5225 129.486 39.0805 130.638 39.7655 131.323L41.0136 132.566H83.1695H125.325L126.574 131.323Z" fill="white"/>
<path d="M147.649 154.748C149.851 153.053 149.983 150.653 147.974 148.786C146.924 147.802 145.838 147.787 83.17 147.787C20.5017 147.787 19.416 147.802 18.3658 148.786C16.3566 150.653 16.4886 153.053 18.6905 154.748C19.8625 155.646 146.478 155.646 147.649 154.748Z" fill="white"/>
<path d="M147.649 176.056C149.851 174.362 149.983 171.962 147.974 170.095C146.924 169.111 145.838 169.095 83.17 169.095C20.5017 169.095 19.416 169.111 18.3658 170.095C16.3566 171.962 16.4886 174.362 18.6905 176.056C19.8625 176.954 146.478 176.954 147.649 176.056Z" fill="white"/>
</svg>
