<svg width="162" height="212" viewBox="0 0 162 212" fill="none" xmlns="http://www.w3.org/2000/svg">
<path d="M0.742492 206.84C-0.432612 199.773 -0.183822 185.698 1.24536 178.531C5.60171 156.638 18.3797 137.577 36.5408 125.863C42.3475 122.116 47.8578 119.496 55.8613 116.664C56.3535 116.489 55.0514 115.552 52.4206 114.186C46.0899 110.899 40.3943 105.029 37.1443 98.4496C33.963 92.0077 32.9097 87.1167 33.2696 80.4631C33.7831 70.9087 37.3242 63.0271 44.2161 56.1035C50.3774 49.9104 60.1117 45.5275 67.697 45.5275H70.3595L67.48 44.0984C63.7218 42.2404 59.0848 37.5665 57.2428 33.7977C53.0188 25.1273 54.6438 14.9166 61.308 8.25239C71.5293 -1.9689 89.9499 -1.9689 100.171 8.25239C106.835 14.9166 108.46 25.1273 104.236 33.7977C102.4 37.5665 97.7574 42.2404 94.0045 44.0984L91.1197 45.5275H93.7875C101.373 45.5275 111.102 49.9104 117.263 56.1035C124.155 63.0271 127.696 70.9087 128.215 80.4631C128.575 87.1167 127.521 92.0077 124.34 98.4496C121.09 105.029 115.389 110.899 109.059 114.186C106.428 115.552 105.126 116.489 105.618 116.664C113.627 119.496 119.132 122.116 124.938 125.863C143.105 137.577 155.877 156.638 160.234 178.531C161.663 185.698 161.912 199.773 160.737 206.84L160.012 211.207H80.7396H1.47297L0.742492 206.84Z" fill="black"/>
</svg>
