<svg width="195" height="202" viewBox="0 0 195 202" fill="none" xmlns="http://www.w3.org/2000/svg">
<path d="M9.06994 193.303C4.71929 188.982 1.04544 184.99 0.905976 184.438C0.42014 182.51 1.45562 180.929 5.1714 177.926C12.4002 172.087 20.6507 167.935 29.6829 165.588C37.5766 163.537 41.4915 163.223 54.7495 163.565C70.3682 163.966 76.9402 163.104 82.0493 159.987L83.8267 158.902L80.2262 158.118C74.1237 156.792 65.9155 153.857 59.9724 150.876C51.7779 146.77 52.0651 148.055 55.9299 132.683C57.6481 125.855 59.0564 120.063 59.0564 119.812C59.0564 119.561 57.9215 118.545 56.5315 117.547C49.7909 112.72 44.5816 104.863 42.1205 95.8119C41.2864 92.7538 41.095 90.9034 41.1224 86.3139C41.1679 79.4867 42.1296 75.4168 45.1786 69.1502C49.9823 59.2739 56.4358 52.8888 74.347 40.2734C80.4632 35.9665 85.4994 32.2612 89.0451 29.4748C89.6559 28.9944 89.4371 28.6266 87.4272 26.7402C84.1047 23.6192 82.5552 20.0985 82.5552 15.664C82.5461 9.53632 85.9323 4.44416 91.8936 1.60525C95.4394 -0.0842374 100.193 -0.0842374 103.743 1.60525C107.458 3.37404 109.873 5.70934 111.587 9.18858C114.563 15.2374 113.264 21.9899 108.205 26.7402C106.2 28.6266 105.981 28.9944 106.592 29.4748C110.133 32.2612 115.174 35.9665 121.29 40.2734C139.201 52.8888 145.655 59.2739 150.458 69.1502C153.503 75.4168 154.464 79.4867 154.51 86.3139C154.542 90.9034 154.346 92.7538 153.516 95.8119C151.055 104.863 145.841 112.72 139.101 117.547C137.715 118.545 136.576 119.561 136.581 119.812C136.581 120.063 137.989 125.855 139.702 132.683C143.572 148.055 143.859 146.77 135.664 150.876C129.721 153.857 121.513 156.792 115.411 158.118L111.81 158.902L113.588 159.987C118.692 163.104 125.264 163.966 140.887 163.565C154.145 163.223 158.06 163.537 165.954 165.588C175.046 167.949 183.104 172.023 190.556 178.021C193.65 180.51 194.452 181.412 194.685 182.656C194.844 183.509 194.767 184.589 194.516 185.054C194.261 185.518 190.588 189.333 186.354 193.531C180.976 198.863 178.346 201.165 177.63 201.165C176.318 201.165 175.502 200.718 172.002 198.075C168.415 195.363 162.864 192.46 158.425 190.978C153.398 189.297 146.844 188.495 133.823 187.975C117.503 187.328 110.356 185.892 102.057 181.613L97.8184 179.43L93.5799 181.613C85.2806 185.892 78.1343 187.328 61.8137 187.975C48.7927 188.495 42.2344 189.297 37.2074 190.978C32.7729 192.46 27.2195 195.363 23.6336 198.075C20.1339 200.718 19.3181 201.165 18.006 201.165C17.2872 201.165 14.611 198.813 9.06994 193.303Z" fill="black"/>
<path d="M70.3503 111.184C87.3682 105.852 104.204 105.469 121.4 110.031C124.221 110.783 127.657 111.818 129.038 112.333L131.554 113.276L133.746 111.668C145.892 102.748 149.966 86.3958 143.413 72.8599C139.133 64.0137 132.538 57.7835 113.036 44.1564C109.81 41.9004 105.065 38.3728 102.495 36.3128L97.8187 32.571L93.1427 36.3128C90.5722 38.3728 85.8278 41.9004 82.5965 44.1564C63.0992 57.7835 56.5044 64.0137 52.2249 72.8599C46.692 84.2857 48.6153 97.8763 57.106 107.315C59.6172 110.104 63.7509 113.272 64.5485 113.012C64.9222 112.889 67.5337 112.069 70.3503 111.184Z" fill="white"/>
<path d="M67.1593 135.558C71.4388 133.813 79.1457 131.653 84.6011 130.664C90.6216 129.574 105.019 129.574 111.035 130.664C116.709 131.694 123.058 133.466 128.048 135.413C130.259 136.279 132.164 136.894 132.278 136.78C132.387 136.666 131.603 133.038 130.532 128.718C128.276 119.625 128.946 120.391 121.381 118.267C113.209 115.97 107.712 115.273 97.818 115.273C87.9235 115.273 82.4271 115.97 74.2554 118.267C66.7217 120.382 67.3279 119.716 65.2679 128.084C64.288 132.058 63.3947 135.668 63.2808 136.105C63.0028 137.172 63.3081 137.126 67.1593 135.558Z" fill="white"/>
<path d="M113.136 150.375C118.596 149.24 125.291 147.125 128.327 145.571L129.894 144.774L127.734 143.817C123.897 142.121 115.944 139.747 111.263 138.908C104.896 137.76 90.7358 137.76 84.3735 138.908C79.6929 139.747 71.7354 142.121 67.9025 143.817L65.7422 144.774L67.31 145.571C71.7946 147.868 81.7028 150.571 88.9948 151.496C94.7374 152.221 106.984 151.656 113.136 150.375Z" fill="white"/>
<path d="M21.3192 189.935C24.9201 187.483 32.322 184.06 36.834 182.757C42.8318 181.025 49.0346 180.282 61.814 179.767C68.2037 179.507 74.7666 179.079 76.3982 178.819C83.3075 177.716 89.5331 175.332 94.592 171.864C97.1306 170.123 98.5069 170.123 101.046 171.864C106.104 175.332 112.33 177.716 119.239 178.819C120.866 179.079 127.429 179.507 133.823 179.767C146.603 180.282 152.801 181.025 158.803 182.757C163.334 184.065 170.717 187.483 174.354 189.962L176.833 191.648L180.899 187.583L184.964 183.513L181.104 180.947C174.987 176.877 168.889 174.302 161.397 172.625C158.275 171.928 155.294 171.805 140.66 171.764C123.678 171.714 123.542 171.704 119.089 170.506C116.628 169.84 113.474 168.779 112.079 168.14C109.158 166.801 104.568 163.606 102.632 161.564C101.365 160.219 101.114 160.146 97.8187 160.146C94.5236 160.146 94.273 160.219 93.006 161.564C91.069 163.606 86.4795 166.801 83.5536 168.14C82.1635 168.779 79.0097 169.84 76.5486 170.506C72.0959 171.704 71.9591 171.714 54.9777 171.764C40.3434 171.805 37.3627 171.928 34.2408 172.625C26.8097 174.289 20.8862 176.777 14.5781 180.888L10.6299 183.463L14.6775 187.528C16.9038 189.766 18.7606 191.594 18.803 191.594C18.8458 191.594 19.9779 190.846 21.3192 189.935Z" fill="white"/>
<path d="M101.501 21.9293C106.35 18.6615 106.35 12.6857 101.501 9.41789C97.0255 6.40397 90.5264 10.1106 90.5264 15.6736C90.5264 21.237 97.0255 24.9432 101.501 21.9293Z" fill="white"/>
<path d="M95.4984 92.5669C94.0217 91.432 93.7163 90.0283 93.7163 84.3314V78.639L87.5226 78.4886C81.379 78.3427 81.3198 78.3291 80.2305 77.0621C78.8268 75.4259 78.8268 73.5072 80.2305 71.871C81.3198 70.604 81.3836 70.5903 87.4862 70.4445L93.648 70.2941L93.7938 64.1368C93.9442 58.0342 93.9533 57.9659 95.2203 56.8812C96.8565 55.4729 98.7798 55.4729 100.411 56.8812C101.678 57.9659 101.692 58.0342 101.838 64.1368L101.988 70.2941L108.146 70.4445C114.253 70.5903 114.317 70.604 115.406 71.871C116.81 73.5072 116.81 75.4259 115.406 77.0621C114.317 78.3291 114.253 78.3427 108.114 78.4886L101.92 78.639V84.3314C101.92 90.0283 101.615 91.432 100.138 92.5669C99.2037 93.2824 96.4327 93.2824 95.4984 92.5669Z" fill="black"/>
</svg>
