<svg width="207" height="205" viewBox="0 0 207 205" fill="none" xmlns="http://www.w3.org/2000/svg">
<path d="M58.7866 203.925C55.078 202.075 54.5273 191.161 57.6713 181.912C60.3609 174.008 63.4637 169.832 75.3238 158.151C86.0089 147.626 88.8547 144.161 92.1777 137.634C96.1479 129.845 97.7084 123.681 98.1261 114.203C98.273 110.857 98.2822 108.121 98.1491 108.121C98.016 108.121 95.7624 109.429 93.1461 111.031C90.5299 112.629 84.6412 115.841 80.0559 118.169C62.6605 126.999 59.9295 129.593 52.1681 144.647C50.7269 147.443 48.6247 150.908 47.4911 152.349C43.8743 156.962 38.0543 160.445 33.974 160.445C32.2326 160.445 29.0417 159.248 27.3513 157.958C26.5632 157.357 25.5457 156.039 25.0899 155.029C24.3404 153.363 24.0604 153.161 22.1313 152.877C8.95571 150.935 -0.387821 139.475 0.647646 126.522C1.31363 118.196 5.06031 109.87 14.4823 95.7839C20.9306 86.1452 23.5514 81.4682 25.3492 76.3964C26.281 73.7665 26.3893 72.5961 26.4067 64.9769L26.4265 56.4857L27.9131 53.3463C29.1519 50.7301 30.4554 49.1603 35.7273 43.9371C39.2064 40.4901 42.6488 36.7816 43.3831 35.6938L44.7142 33.7201L43.7044 21.0063C42.3183 3.48138 42.3137 3.52682 45.164 2.32887C47.1055 1.5128 47.0091 1.46736 61.6828 10.2959C68.4528 14.3689 74.1488 17.7016 74.3416 17.7016C74.5344 17.7016 78.1603 13.9884 82.4013 9.45C88.7904 2.61161 90.3831 1.14699 91.7003 0.900057C94.5047 0.374062 95.1657 1.31268 100.871 13.8521L106.103 25.3469L108.949 24.9297C113.038 24.3307 122.994 24.859 128.162 25.9486C137.553 27.9273 146.875 31.9641 154.42 37.3186C159.46 40.8941 167.575 49.1007 171.329 54.4203C179.449 65.9178 185.333 78.7831 190.726 96.8396C199.984 127.839 205.689 164.09 205.84 192.9C205.886 201.974 205.868 202.204 204.844 203.227L203.798 204.278L131.866 204.389C75.1127 204.476 59.6908 204.379 58.7866 203.925Z" fill="black"/>
<path d="M59.0531 18.0867C54.9911 15.6482 51.613 13.7094 51.5396 13.7792C51.4707 13.8489 51.6589 17.2082 51.9618 21.2445L52.508 28.5832L59.4708 25.5521L66.4382 22.521L59.0531 18.0867Z" fill="white"/>
<path d="M198.148 195.994C199.474 194.672 199.474 194.612 198.047 176.51C195.385 142.692 187.137 102.894 178.026 79.8939C175.359 73.1606 170.274 63.5311 166.753 58.5511C159.199 47.8614 147.967 39.1132 136.543 35.0099C129.695 32.5479 124.389 31.6974 116.16 31.7396C111.239 31.7649 107.384 32.0283 105.158 32.4905C103.276 32.8802 101.491 33.1097 101.201 32.9995C100.908 32.8848 99.058 29.2427 97.089 24.9035C95.12 20.5638 92.9949 15.8904 92.3661 14.519L91.2278 12.0244L84.0722 19.415L76.9167 26.8051L64.4461 32.171L51.9801 37.5389L48.9738 41.5642C47.3168 43.7765 43.8928 47.5034 41.3546 49.8442C34.5479 56.1231 34.6948 55.7835 34.6535 65.4359C34.626 72.3482 34.4791 73.9455 33.5978 76.9105C31.8601 82.7534 27.9891 90.0466 21.4215 99.8597C14.2168 110.623 10.4687 117.778 9.39839 122.813C8.48869 127.091 8.75627 132.438 10.0217 135.257C12.256 140.236 17.7468 144.184 23.1339 144.689L26.0811 144.964L29.1553 140.884C30.8462 138.644 32.6794 136.555 33.2293 136.253C35.4521 135.009 37.848 135.798 38.8073 138.088C39.6197 140.012 39.2158 140.939 35.319 146.13C33.5519 148.48 32.1731 150.752 32.2539 151.179C32.5201 152.583 35.3741 152.418 37.5038 150.876C40.4505 148.741 42.4195 145.983 46.4218 138.387C48.4735 134.49 51.0484 130.042 52.1453 128.505C56.3542 122.598 62.7066 117.999 75.9253 111.279C88.9329 104.67 100.435 97.3353 103.831 93.4844C107.834 88.9451 109.532 83.653 109.133 76.9426C108.834 71.9122 109.344 70.4113 111.611 69.6218C112.759 69.2225 113.369 69.2638 114.576 69.8376C116.495 70.7509 117.087 72.3298 117.404 77.3832C117.89 85.0942 114.434 94.205 108.88 99.8551L105.833 102.958L106.2 105.882C106.751 110.242 106.2 120.151 105.144 124.874C103.06 134.182 99.1452 143.045 94.0184 150.045C92.4992 152.124 86.8261 158.187 81.2862 163.658C71.4043 173.421 68.5448 176.877 66.3004 181.788C64.8684 184.909 63.854 189.71 63.8402 193.378L63.8357 196.246H128.754C171.536 196.246 193.769 196.402 193.957 196.705C194.513 197.605 196.955 197.187 198.148 195.994Z" fill="white"/>
<path d="M40.4595 74.542C42.5341 70.6314 48.5239 61.0019 49.7402 59.6158C52.2141 56.7977 56.0512 55.5905 58.9841 56.7059C59.6313 56.9491 60.1637 57.4173 60.1637 57.7478C60.1637 59.1752 56.4413 64.5682 53.2652 67.7352C50.6444 70.3514 48.8727 71.6458 45.9214 73.1053C43.7826 74.161 41.5473 75.1616 40.9598 75.3222C39.9592 75.6022 39.9225 75.5517 40.4595 74.542Z" fill="black"/>
<path d="M12.0587 130.777C12.2335 127.142 12.5236 125.664 13.4696 123.598C14.7217 120.863 16.7637 119.142 18.7612 119.137C21.3439 119.132 23.9018 121.716 23.9018 124.323C23.9018 126.302 21.9222 128.431 16.8371 131.924L11.8379 135.357L12.0587 130.777Z" fill="black"/>
</svg>
