<svg width="12" height="16" viewBox="0 0 12 16" fill="none" xmlns="http://www.w3.org/2000/svg">
<path d="M7.90148 8.38884C8.369 8.04657 8.64865 7.5175 8.64865 6.76386C8.64865 4.6368 5.999 3.4221 5.999 3.4221C5.999 3.4221 3.35044 4.6368 3.35044 6.76386C3.35044 7.5175 3.63009 8.04657 4.09653 8.38884C3.61065 9.77845 2.90451 11.8332 2.88184 12.1247H9.11617C9.09458 11.8332 8.38844 9.77845 7.90148 8.38884Z" stroke="black" stroke-linecap="round" stroke-linejoin="round"/>
<path d="M6.42024 6.3298L7.87031 4.85058M4.77042 2.19337C4.76554 2.35787 4.79373 2.52167 4.85331 2.67507C4.9129 2.82847 5.00266 2.96836 5.11729 3.08643C5.23192 3.20451 5.36909 3.29838 5.52066 3.36248C5.67222 3.42659 5.83512 3.45962 5.99969 3.45962C6.16425 3.45962 6.32715 3.42659 6.47872 3.36248C6.63029 3.29838 6.76745 3.20451 6.88208 3.08643C6.99671 2.96836 7.08647 2.82847 7.14606 2.67507C7.20564 2.52167 7.23383 2.35787 7.22895 2.19337C7.21948 1.87366 7.08581 1.57021 6.85631 1.34741C6.62681 1.12462 6.31954 1 5.99969 1C5.67983 1 5.37256 1.12462 5.14306 1.34741C4.91356 1.57021 4.77989 1.87366 4.77042 2.19337ZM1.46862 12.7801C1.53255 12.5895 1.65465 12.4237 1.81774 12.3061C1.98083 12.1886 2.17669 12.1251 2.37775 12.1247H9.62271C10.0352 12.1247 10.4012 12.3881 10.5318 12.7801L11.2714 15H0.729004L1.46862 12.7801Z" stroke="black" stroke-linecap="round" stroke-linejoin="round"/>
</svg>
