<svg width="12" height="14" viewBox="0 0 12 14" fill="none" xmlns="http://www.w3.org/2000/svg">
<path d="M5.99992 3.017V0.5M5.99992 3.017C6.52054 3.017 7.01984 3.22382 7.38797 3.59195C7.75611 3.96008 7.96292 4.45938 7.96292 4.98M5.99992 3.017C5.4793 3.017 4.98001 3.22382 4.61187 3.59195C4.24374 3.96008 4.03692 4.45938 4.03692 4.98M5.24492 1.255H6.75492M2.99792 5.81L4.02492 8.765L3.25692 10.865H8.74292L7.97492 8.765L9.00292 5.81C9.14492 5.402 8.82692 4.98 8.37792 4.98H3.62192C3.17192 4.98 2.85592 5.402 2.99792 5.81ZM1.84792 11.466C1.96792 11.107 2.30292 10.866 2.68092 10.866H9.31892C9.69692 10.866 10.0329 11.107 10.1519 11.466L10.8299 13.5H1.16992L1.84792 11.466Z" stroke="black" stroke-linecap="round" stroke-linejoin="round"/>
</svg>
