<svg width="10" height="14" viewBox="0 0 10 14" fill="none" xmlns="http://www.w3.org/2000/svg">
<path d="M5 0.5C4.453 0.5 4 0.953 4 1.5C4 1.865 4.201 2.1855 4.5 2.3595V3.125C4.5 3.338 4.338 3.5 4.125 3.5H2.953C2.88011 3.50069 2.8081 3.48406 2.7429 3.45146C2.6777 3.41886 2.62118 3.37123 2.578 3.3125C2.70825 3.22075 2.81457 3.09906 2.888 2.95767C2.96144 2.81628 2.99985 2.65932 3 2.5C3 1.953 2.547 1.5 2 1.5C1.453 1.5 1 1.953 1 2.5C1 2.865 1.201 3.1855 1.5 3.3595V4.203L1.6405 4.3595L2.8125 5.5315C2.70226 5.5731 2.61026 5.6523 2.55272 5.75512C2.49518 5.85794 2.4758 5.97778 2.498 6.0935C2.52009 6.20968 2.58264 6.31427 2.67455 6.38869C2.76645 6.46312 2.88177 6.50255 3 6.5H3.328L2.547 9.2815L2.5155 9.3595L2.1875 10H1.453C1.178 10.0135 0.963 10.248 0.9765 10.5235C0.99 10.799 1.2245 11.0135 1.5 11L0.5935 12.203L0.5 12.328V13.5H9.5V12.328L9.406 12.203L8.5 11C8.68 11.002 8.8475 10.908 8.9395 10.752C8.98364 10.6753 9.00687 10.5885 9.00687 10.5C9.00687 10.4115 8.98364 10.3247 8.9395 10.248C8.8475 10.092 8.6795 9.998 8.5 10H7.8125L7.4845 9.3595L7.4685 9.328L7.4535 9.2815L6.6715 6.5H7C7.11829 6.50312 7.23385 6.46418 7.32613 6.39012C7.41842 6.31605 7.48144 6.21166 7.504 6.0955C7.52672 5.97916 7.50737 5.85853 7.4494 5.75514C7.39143 5.65174 7.29861 5.57231 7.1875 5.531L8.3595 4.3595L8.5 4.203V3.36C8.799 3.186 9 2.8655 9 2.5005C9 1.9535 8.547 1.5005 8 1.5005C7.453 1.5005 7 1.9535 7 2.5005C7 2.8345 7.166 3.1315 7.422 3.313C7.37882 3.37173 7.3223 3.41936 7.2571 3.45196C7.19191 3.48456 7.11989 3.5012 7.047 3.5005H5.875C5.82549 3.50145 5.7763 3.4924 5.73038 3.47389C5.68445 3.45538 5.64273 3.4278 5.60772 3.39278C5.5727 3.35777 5.54512 3.31605 5.52661 3.27012C5.5081 3.2242 5.49905 3.17501 5.5 3.1255V2.3595C5.799 2.1855 6 1.865 6 1.5C6 0.953 5.547 0.5 5 0.5ZM5 4.172C5.24 4.373 5.541 4.5 5.875 4.5H6.7815L5.7815 5.5H4.219L3.219 4.5H4.125C4.459 4.5 4.76 4.373 5 4.172ZM4.375 6.5H5.625L6.5155 9.6405L6.5315 9.6875L6.6875 10H3.3125L3.469 9.6875L3.484 9.6405L4.375 6.5ZM2.75 11H7.25L8.375 12.5H1.625L2.75 11Z" fill="black"/>
</svg>
