<svg width="12" height="14" viewBox="0 0 12 14" fill="none" xmlns="http://www.w3.org/2000/svg">
<path d="M2.47068 9.47059H9.5295M3.88244 5.94118H8.11773M4.58832 1V2.41176M7.41185 1V2.41176M9.81185 4.52941H2.18832C2.076 4.52941 1.96827 4.48479 1.88884 4.40536C1.80941 4.32594 1.76479 4.21821 1.76479 4.10588V1.42353C1.76479 1.3112 1.80941 1.20348 1.88884 1.12405C1.96827 1.04462 2.076 1 2.18832 1H9.81185C9.92418 1 10.0319 1.04462 10.1113 1.12405C10.1908 1.20348 10.2354 1.3112 10.2354 1.42353V4.10588C10.2354 4.21821 10.1908 4.32594 10.1113 4.40536C10.0319 4.48479 9.92418 4.52941 9.81185 4.52941ZM10.1655 13H1.83468C1.75817 12.9993 1.68322 12.9783 1.61742 12.9393C1.55162 12.9002 1.4973 12.8445 1.45997 12.7777C1.42264 12.7109 1.40362 12.6355 1.40484 12.559C1.40606 12.4825 1.42747 12.4077 1.46691 12.3421C2.32385 10.9247 4.23538 7.58447 4.23538 5.94118V4.95294C4.23538 4.84061 4.28 4.73289 4.35943 4.65346C4.43886 4.57403 4.54658 4.52941 4.65891 4.52941H7.34126C7.45359 4.52941 7.56132 4.57403 7.64074 4.65346C7.72017 4.73289 7.76479 4.84061 7.76479 4.95294V5.94118C7.76479 7.58376 9.67632 10.9254 10.5333 12.3421C10.5727 12.4077 10.5941 12.4825 10.5953 12.559C10.5966 12.6355 10.5775 12.7109 10.5402 12.7777C10.5029 12.8445 10.4486 12.9002 10.3828 12.9393C10.317 12.9783 10.242 12.9993 10.1655 13Z" stroke="black" stroke-linecap="round"/>
</svg>
