<svg width="13" height="14" viewBox="0 0 13 14" fill="none" xmlns="http://www.w3.org/2000/svg">
<path d="M3.07187 10.594C3.22987 9.76404 4.37788 8.81104 5.18888 8.17604C7.13388 6.65404 6.95388 5.35204 6.63588 4.99904L4.69287 6.11004C4.46775 6.2393 4.20749 6.29401 3.94937 6.26635C3.69125 6.23869 3.4485 6.13007 3.25588 5.95604C3.04392 5.76601 2.90443 5.50833 2.86122 5.22696C2.818 4.94558 2.87372 4.65793 3.01888 4.41304L4.48287 1.93004L3.91988 0.658041C4.84988 0.328041 7.42087 0.503041 8.43787 1.29304C9.70787 2.28204 11.3319 3.78204 9.99088 10.593M1.91988 11.256C1.9844 11.0633 2.10783 10.8958 2.27272 10.777C2.43762 10.6582 2.63565 10.5942 2.83887 10.594H10.1609C10.5779 10.594 10.9479 10.861 11.0809 11.256L11.8279 13.5H1.17188L1.91988 11.256Z" stroke="black" stroke-linecap="round" stroke-linejoin="round"/>
</svg>
