<svg width="12" height="14" viewBox="0 0 12 14" fill="none" xmlns="http://www.w3.org/2000/svg">
<path d="M0.944336 13.5V10.4161C2.08689 9.61107 2.86569 8.81494 3.28072 8.02772C3.69528 7.24098 3.98826 6.5373 4.15967 5.91667H2.292V5.19444H4.20806C3.9288 4.94841 3.70611 4.65639 3.54 4.31839C3.37389 3.98039 3.29108 3.61037 3.29156 3.20833C3.29156 2.45626 3.55517 1.81685 4.08239 1.29011C4.60961 0.76337 5.24974 0.5 6.00278 0.5C6.75582 0.5 7.39498 0.76337 7.92028 1.29011C8.44558 1.81685 8.70823 2.45626 8.70823 3.20833C8.70823 3.61037 8.62541 3.98039 8.45978 4.31839C8.29415 4.65639 8.07123 4.94841 7.791 5.19444H9.7215V5.91667H7.86756C8.02934 6.52815 8.31534 7.22967 8.72556 8.02122C9.13578 8.81278 9.91241 9.61107 11.0554 10.4161V13.5H0.944336ZM1.66656 12.7778H10.3332V10.861C9.41071 10.1243 8.7075 9.35806 8.22361 8.56217C7.73973 7.76628 7.37163 6.88444 7.11934 5.91667H4.89489C4.6426 6.88444 4.27185 7.76628 3.78267 8.56217C3.29493 9.35709 2.58956 10.1234 1.66656 10.861V12.7778ZM6.00495 5.19444C6.5625 5.19444 7.03195 5.00257 7.41328 4.61883C7.79461 4.23509 7.98552 3.76493 7.986 3.20833C7.98648 2.65174 7.79486 2.18181 7.41111 1.79856C7.02737 1.4153 6.55841 1.22319 6.00422 1.22222C5.45004 1.22126 4.97963 1.41337 4.593 1.79856C4.20637 2.18374 4.0133 2.65367 4.01378 3.20833C4.01426 3.763 4.20685 4.23317 4.59156 4.61883C4.97626 5.0045 5.44739 5.19637 6.00495 5.19444Z" fill="black" stroke="black" stroke-width="0.5"/>
</svg>
